<svg xmlns="http://www.w3.org/2000/svg" xmlns:xlink="http://www.w3.org/1999/xlink" viewBox="0 0 550 385"><defs><style>.cls-1{fill:url(#radial-gradient);}.cls-2{fill:#1e1d1d;}.cls-3{fill:#fff;}.cls-4{fill:#f20038;}.cls-5{fill:#ffcd02;}.cls-6{fill:#ff0038;}</style><radialGradient id="radial-gradient" cx="275" cy="192.5" r="350.01" gradientUnits="userSpaceOnUse"><stop offset="0" stop-color="#e60038"/><stop offset="1" stop-color="#9e030b"/></radialGradient></defs><title>free-maa-durga-face-vector</title><g id="background"><rect id="color" class="cls-1" width="550" height="385"/></g><g id="illustration"><path class="cls-2" d="M200.74,103.42c-21-5.85-43.4-.1-63.23,7.16-3,1.1-7.14,3-9.51,3.91,21.86-8,44-12.31,66.77-6,20.6,5.74,43.56,29.79,49.75,37.92,1.62,2.12,9.88-1.36,9.88-4C254.4,130.67,223.28,109.7,200.74,103.42Z"/><path class="cls-2" d="M349.26,103.42c21-5.85,43.4-.1,63.23,7.16,3,1.1,7.15,3,9.51,3.91-21.86-8-44-12.31-66.77-6-20.59,5.74-43.56,29.79-49.75,37.92-1.62,2.12-9.88-1.36-9.88-4C295.6,130.67,326.72,109.7,349.26,103.42Z"/><path class="cls-2" d="M343.52,188.43c-24.76,0-24.76-38.4,0-38.4s24.76,38.4,0,38.4Z"/><path class="cls-3" d="M349.67,168.76c6,0,6-9.3,0-9.3s-6,9.3,0,9.3Z"/><path class="cls-2" d="M312.26,183.74c4.34-21.58,15-28.91,36.19-29.39,15.48-.35,30.82,2.12,46.24-.3,4.66-.73,30.31-17.44,23-13.06-20.26,12.2-58.89,0-79.49,4.58-22,4.85-34.84,20.48-39.2,42.1-1.39,6.89,12.29.79,13.24-3.94Z"/><path class="cls-2" d="M304.34,187.63c15.35,14.86,77.95,1.61,92.77-38.65-1.36,1.4-4-.09-4.71,1.79-12.58,33.66-68.32,44.69-81.38,35.08-1.19-.87-5.55,2.62-6.68,1.79Z"/><path class="cls-2" d="M206.48,188.43c-24.76,0-24.76-38.4,0-38.4s24.76,38.4,0,38.4Z"/><path class="cls-3" d="M200.33,168.76c6,0,6-9.3,0-9.3s-6,9.3,0,9.3Z"/><path class="cls-2" d="M237.75,183.74c-4.35-21.58-15-28.91-36.19-29.39-15.48-.35-30.82,2.12-46.24-.3-4.66-.73-30.31-17.44-23-13.06,20.26,12.2,58.89,0,79.5,4.58,22,4.85,34.84,20.48,39.2,42.1,1.39,6.89-12.29.79-13.24-3.94Z"/><path class="cls-2" d="M245.66,187.63c-15.35,14.86-77.95,1.61-92.77-38.65,1.36,1.4,4-.09,4.71,1.79,12.58,33.66,68.33,44.69,81.39,35.08,1.19-.87,5.55,2.62,6.68,1.79Z"/><path class="cls-4" d="M320.18,297.67c-9.43.66-17.34-5.17-26-8-7.21-2.32-14.61-.27-20.17,4.13-5.11-4.07-9.32-5.7-16.15-4.63-9.9,1.54-17.55,9.18-28,8.45-3-.21-3,4.47,0,4.67a21.83,21.83,0,0,0,4.62-.19c14.44,32.51,67.74,33.73,81.54.06a21.56,21.56,0,0,0,4.2.14C323.17,302.13,323.19,297.46,320.18,297.67Zm-46.71,14.16c-5.69,0-11.34-3.88-16.81-5.69-5.13-1.7-10.42-3.46-15.89-3.75l-.32-.67c1-.33,2.09-.72,3.25-1.17a76,76,0,0,1,12.42,3.35c5.6,1.85,11.39,3.77,17.35,3.77q.75,0,1.51,0t1.51,0c6,0,11.76-1.92,17.35-3.77a75.9,75.9,0,0,1,12.42-3.35c1.35.53,2.55,1,3.69,1.31l-.24.51c-5.65.21-11.11,2-16.4,3.77-5.46,1.81-11.12,5.69-16.81,5.69-.49,0-1.59,0-1.59,0C274.45,311.82,273.47,311.83,273.47,311.83Z"/><path class="cls-5" d="M319.66,278.52a28,28,0,1,1,28-28,28.07,28.07,0,0,1-28,28Zm0-53.75a25.71,25.71,0,1,0,25.71,25.71,25.74,25.74,0,0,0-25.71-25.71Z"/><path class="cls-3" d="M300.57,233.37l-2.61,3c8.37,4.08,9.88,21.21-.15,23.47a1.89,1.89,0,0,0-.95,0c-.38.08-.75.2-1.12.31a2.68,2.68,0,0,0-1,.34c-6.84,2.62-11.67,9.77-19.16,10.71-7.33.92-13.16-6.58-19.67-10a1.64,1.64,0,0,0-1-.47h0a13.79,13.79,0,0,0-2.54-.88h-.11c-9-4.31-9.42-19.32-.62-23.62,2.78-1.35.29-3.77-2-2.65-11.83,5.77-12.37,26.4.92,29.47a1.79,1.79,0,0,0,.81.42c8.12,1.9,13.22,10.65,21.89,11.32,10.14.78,15.36-9.3,24.54-11.32a1.72,1.72,0,0,0,.93-.52C311.82,259.56,313,239.43,300.57,233.37Z"/><path class="cls-5" d="M274.66,96.23c-5.71-5-5.76-15.27-.15-32.39l.49-1.5.49,1.5c5.61,17.12,5.56,27.41-.15,32.39l-.34,1.3Z"/><path class="cls-6" d="M275,152.81c15.33,0,15.33-23,0-23s-15.33,23,0,23Z"/><path class="cls-5" d="M275,162.81c5.33,0,5.33-8,0-8s-5.33,8,0,8Z"/><path class="cls-2" d="M288.1,78.66a114,114,0,0,0-4.45-17.23A158.34,158.34,0,0,0,277.11,45a157.78,157.78,0,0,1,5.34,16.78A112.2,112.2,0,0,1,285.62,79c.53,5.74.53,11.62-1.06,16.88a16.6,16.6,0,0,1-3.79,6.8A13.27,13.27,0,0,1,275,106.1a12.74,12.74,0,0,1-5.72-3.47,15.94,15.94,0,0,1-3.57-6.91c-1.37-5.33-1.16-11.23-.41-17a114.18,114.18,0,0,1,3.79-17.12A162.39,162.39,0,0,1,275,45a162.9,162.9,0,0,0-7.1,16.25,116,116,0,0,0-5.07,17.1c-1.18,5.85-1.91,12-.79,18.21a20,20,0,0,0,3.91,8.92,17.52,17.52,0,0,0,7.67,5.38,2.81,2.81,0,0,0,2.76,0,18,18,0,0,0,7.64-5.27,20.65,20.65,0,0,0,4.15-8.75C289.56,90.66,289.06,84.54,288.1,78.66Z"/><path class="cls-6" d="M246.35,97.29c-10.44-12.58,12.5,27.94,28.82,28.82S313.47,85.63,304,97.29C281.94,124.44,269.65,125.37,246.35,97.29Z"/></g></svg>