<svg width="280" height="224" viewBox="0 0 280 224" fill="none" xmlns="http://www.w3.org/2000/svg">
<g id="Frame 12">
<g id="Union" filter="url(#filter0_d)">
<path d="M9.33333 0.242432C4.17868 0.242432 0 4.71959 0 10.2424V212.242C0 218.87 5.37259 224.242 12 224.242H268C274.627 224.242 280 218.87 280 212.242V10.2424C280 4.71958 275.821 0.242432 270.667 0.242432H9.33333Z" fill="url(#paint0_linear)"/>
</g>
<text id="www.smiley.com" fill="#4ACDFF" xml:space="preserve" style="white-space: pre" font-family="Inter" font-size="9" font-weight="500" letter-spacing="0px" text-decoration="underline"><tspan x="15" y="193.964">WWW.SMILEY.COM</tspan></text>
<path id="Rectangle 1948 (Stroke)" opacity="0.3" fill-rule="evenodd" clip-rule="evenodd" d="M246.79 94.0875V92.2841L279.996 59.2381L279.996 62.6386L249.495 93.1858L279.996 123.846L279.996 127.246L246.79 94.0875Z" fill="#FCAF17"/>
<path id="Vector 4 (Stroke)" opacity="0.3" fill-rule="evenodd" clip-rule="evenodd" d="M121 0.242432V30.6856L145.13 52.1854L169.26 30.6856V0.242432H172.26V31.3582L171.758 32.4781L146.128 55.3144H144.132L118.502 32.4781L118 31.3582V0.242432H121Z" fill="#78D4FF"/>
<text id="Beautiful Smiles" fill="white" xml:space="preserve" style="white-space: pre" font-family="Inter" font-size="26" font-weight="800" letter-spacing="0px"><tspan x="15" y="128.717">Beautiful Smiles</tspan></text>
<text id="SMILEY DENTAL CLINIC" fill="white" xml:space="preserve" style="white-space: pre" font-family="Inter" font-size="8" font-weight="600" letter-spacing="0px"><tspan x="15" y="89.8293">SMILEY DENTAL CLINIC</tspan></text>
<g id="Group 6265537">
<g id="Group 6265498">
<circle id="Ellipse 422" opacity="0.1" cx="40.0339" cy="46.3505" r="25.0339" fill="black"/>
</g>
<g id="Group 6265118">
<path id="Vector" d="M49.0182 31.2499C48.743 31.2909 48.6237 31.3174 48.4219 31.3826C47.4907 31.6842 46.7316 32.4588 46.415 33.4312C46.2705 33.8825 46.2178 34.4809 46.2843 34.9393C46.493 36.3461 47.5091 37.432 48.8439 37.666C49.1306 37.7167 49.6765 37.7046 49.9471 37.6443C50.3416 37.555 50.7315 37.3789 51.071 37.14C51.2911 36.9856 51.72 36.5343 51.8668 36.3027C52.1145 35.9142 52.3003 35.4292 52.3668 34.9997C52.4104 34.7029 52.4104 34.2251 52.3645 33.9355C52.1558 32.6205 51.165 31.5515 49.9196 31.2957C49.7361 31.2571 49.1581 31.2282 49.0182 31.2499Z" fill="#FBFEF7"/>
<path id="Vector_2" d="M30.3971 33.0695C29.4613 33.1805 28.6609 33.7789 28.2618 34.6669C27.7733 35.7551 27.9797 37.0147 28.787 37.8617C29.3421 38.4432 30.0187 38.7207 30.8054 38.6845C31.4453 38.6555 32.0163 38.407 32.498 37.9437C32.8994 37.5576 33.1608 37.0823 33.2984 36.4887C33.3718 36.1798 33.3718 35.5983 33.303 35.2749C33.0897 34.3073 32.4429 33.54 31.5714 33.2166C31.2113 33.0839 30.7572 33.0284 30.3971 33.0695Z" fill="#FBFEF7"/>
<path id="Vector_3" d="M39.7527 37.2315C39.1403 37.3739 38.6587 37.7745 38.3766 38.3753C38.239 38.6673 38.1931 38.8965 38.1954 39.2826C38.1977 39.577 38.2046 39.6469 38.2596 39.8376C38.427 40.4215 38.7894 40.8727 39.294 41.1285C39.6266 41.2974 39.7802 41.3336 40.1656 41.3336C40.4293 41.3312 40.5188 41.3216 40.6701 41.2781C41.7779 40.9475 42.3926 39.7459 42.0325 38.6069C41.9339 38.2957 41.7848 38.0447 41.5532 37.7986C41.271 37.5018 40.9454 37.316 40.5669 37.2315C40.3674 37.1881 39.9431 37.1881 39.7527 37.2315Z" fill="#FBFEF7"/>
<path id="Vector_4" d="M49.0759 39.2705C48.1355 39.3718 47.1149 39.7169 46.1998 40.2405C45.8236 40.4577 45.4704 40.7062 44.9934 41.0923C44.1287 41.7897 43.5828 42.1588 42.8374 42.5522C41.7962 43.0999 40.865 43.3557 39.9017 43.3581C39.4384 43.3581 39.1815 43.3316 38.7778 43.2375C38.2893 43.1216 37.9086 42.9769 37.4201 42.7187C37.271 42.6414 37.1494 42.5811 37.1494 42.5859C37.1494 42.5932 37.2893 42.6945 37.4613 42.8152C38.3765 43.457 39.3375 43.7635 40.4407 43.7659C41.1884 43.7659 41.9017 43.6356 42.6539 43.3605C43.5943 43.0155 44.3397 42.6125 45.4406 41.8524C46.0438 41.435 46.264 41.2998 46.5966 41.1357C47.5644 40.6604 48.4819 40.4239 49.3626 40.4215C50.4704 40.4191 51.0873 40.7521 51.3167 41.4736C51.3763 41.6642 51.3786 41.6907 51.3809 42.1661C51.3809 42.6897 51.3534 42.9358 51.2433 43.4329C51.0965 44.0917 50.8924 44.6828 50.3465 46.0269C49.8213 47.3275 49.6974 47.6532 49.5002 48.283C48.8649 50.2906 48.4199 52.5444 48.2961 54.3638C48.2823 54.5616 48.2525 55.1432 48.2273 55.6547C48.202 56.1663 48.1699 56.7357 48.1585 56.9215C48.0392 58.6179 47.8053 59.7134 47.4337 60.319C47.2984 60.5386 47.0232 60.8258 46.9108 60.8668C46.7525 60.9223 46.5874 60.8282 46.4268 60.5917C46.1264 60.1429 45.959 59.5951 45.6929 58.1956C45.475 57.0494 45.342 56.492 45.1149 55.7633C44.4177 53.5265 43.2709 52.1245 41.8695 51.8036C41.6494 51.7529 41.1884 51.7529 40.9338 51.8036C40.2205 51.9435 39.4751 52.3996 38.8581 53.0776C38.5324 53.4299 38.4636 53.5433 38.709 53.3141C39.2893 52.7712 40.0301 52.3562 40.67 52.2162C40.9636 52.151 41.3948 52.1607 41.6792 52.2379C42.7182 52.5226 43.592 53.635 44.1264 55.3531C44.3397 56.0408 44.5599 57.1484 44.6952 58.2246C44.8764 59.653 45.0346 60.3311 45.3328 60.9536C45.7456 61.8175 46.4268 62.2446 47.1378 62.0853C47.7342 61.9526 48.3809 61.3084 48.7548 60.4759C49.1906 59.4986 49.413 58.2125 49.569 55.7512C49.686 53.9174 49.7525 53.3141 49.9841 52.0714C50.1424 51.2196 50.3213 50.4499 50.5667 49.5498C50.8419 48.5485 50.9887 48.1189 51.5208 46.7556C52.241 44.9121 52.4589 44.1858 52.5988 43.1554C52.6561 42.7331 52.6584 41.8283 52.6034 41.5387C52.3625 40.2984 51.5598 39.507 50.3373 39.3043C50.0759 39.2608 49.3465 39.2415 49.0759 39.2705Z" fill="#FBFEF7"/>
<path id="Vector_5" d="M31.7277 40.793C31.4571 40.8244 31.2094 40.8968 30.964 41.0198C30.175 41.4132 29.6452 42.2505 29.4434 43.4256C29.2691 44.4439 29.37 45.5514 29.7392 46.7073C29.9915 47.4987 30.2232 48.0006 30.9319 49.3036C32.1933 51.6201 32.6887 52.677 33.1153 53.9462C33.4089 54.8221 33.5374 55.4857 33.7323 57.1507C33.902 58.584 33.98 59.0811 34.1222 59.6867C34.4915 61.2359 35.2392 62.0249 36.2782 61.9694C37.207 61.9188 37.957 61.1394 38.4754 59.6843C38.7712 58.8567 38.8997 58.2148 39.1451 56.3423C39.2667 55.435 39.3699 54.9911 39.5556 54.5808C39.7483 54.1586 39.9341 53.9414 40.2277 53.7966C40.7552 53.536 41.2919 53.7098 41.863 54.3323C41.9914 54.4674 42.1267 54.6243 42.168 54.6774L42.2437 54.7739L42.1749 54.6412C41.9341 54.1779 41.5052 53.7001 41.1818 53.5336C40.7552 53.3116 40.3423 53.3116 39.9134 53.5288C39.4777 53.7508 39.1589 54.1562 38.8859 54.8318C38.7277 55.2275 38.6222 55.6184 38.3974 56.6319C38.1107 57.9373 38.0121 58.3017 37.7896 58.9001C37.4249 59.8774 37.0052 60.5192 36.5832 60.7388C36.4318 60.8184 36.3882 60.8281 36.246 60.8281C35.8745 60.8281 35.6383 60.5627 35.4318 59.9136C35.2506 59.3417 35.1727 58.7819 35.0052 56.8853C34.8401 55.0128 34.6406 54.0645 34.1337 52.7108C33.6979 51.5501 33.23 50.5873 32.136 48.6039C31.3585 47.1971 31.0787 46.577 30.87 45.7976C30.7048 45.1798 30.6727 44.9337 30.6727 44.2894C30.6727 43.7899 30.6773 43.691 30.7232 43.469C30.8218 42.984 30.9434 42.6872 31.1544 42.4194C31.5695 41.8837 32.331 41.8451 33.2392 42.3108C33.7392 42.569 34.0901 42.8151 35.0052 43.5535C35.8883 44.2653 36.23 44.5138 36.7162 44.7986C37.4869 45.2474 38.3332 45.4911 39.324 45.5442C40.6405 45.6142 41.918 45.3029 42.7964 44.6948C43.0006 44.5549 43.4203 44.1953 43.4019 44.176C43.3996 44.1712 43.3194 44.2219 43.2253 44.287C42.1542 45.0351 40.5258 45.257 38.8928 44.8782C38.5075 44.7889 38.0602 44.6248 37.7162 44.4487C37.097 44.1302 36.7093 43.831 35.6704 42.8634C34.519 41.7944 33.9594 41.3794 33.2048 41.044C32.753 40.8413 32.1658 40.7423 31.7277 40.793Z" fill="#FBFEF7"/>
</g>
</g>
<g id="Group 6265563">
<rect id="Rectangle 1961" opacity="0.2" x="200" y="23.2424" width="65" height="30" rx="15" fill="black"/>
<g id="Group 6265539">
<g id="Group 6265432">
<g id="edit-2 (1) 1">
<path id="Vector_6" d="M221.834 31.7856C222.007 31.6134 222.211 31.4768 222.436 31.3836C222.661 31.2904 222.902 31.2424 223.146 31.2424C223.389 31.2424 223.63 31.2904 223.855 31.3836C224.08 31.4768 224.285 31.6134 224.457 31.7856C224.629 31.9578 224.766 32.1622 224.859 32.3872C224.952 32.6122 225 32.8533 225 33.0968C225 33.3403 224.952 33.5815 224.859 33.8065C224.766 34.0314 224.629 34.2359 224.457 34.4081L215.606 43.259L212 44.2424L212.983 40.6365L221.834 31.7856Z" stroke="white" stroke-width="1.25" stroke-linecap="round" stroke-linejoin="round"/>
</g>
</g>
<text id="Edit" fill="white" xml:space="preserve" style="white-space: pre" font-family="Open Sans" font-size="12" font-weight="600" letter-spacing="0px"><tspan x="229.667" y="42.8977">EDIT</tspan></text>
</g>
</g>
<g id="Straighten your teeth with Invisible braces starting at Rs.399/-">
<text fill="#FFB900" xml:space="preserve" style="white-space: pre" font-family="Inter" font-size="10" font-weight="bold" letter-spacing="0px"><tspan x="67.002" y="166.084">Rs.399/-</tspan></text>
<text fill="white" fill-opacity="0.4" xml:space="preserve" style="white-space: pre" font-family="Inter" font-size="10" font-weight="500" letter-spacing="0px"><tspan x="64.3555" y="166.084"> </tspan></text>
<text fill="white" fill-opacity="0.6" xml:space="preserve" style="white-space: pre" font-family="Inter" font-size="10" font-weight="500" letter-spacing="0px"><tspan x="15" y="150.084">Straighten your teeth with Invisible braces </tspan><tspan x="15" y="166.084">starting at</tspan></text>
</g>
</g>
<defs>
<filter id="filter0_d" x="-14" y="-3.75757" width="308" height="252" filterUnits="userSpaceOnUse" color-interpolation-filters="sRGB">
<feFlood flood-opacity="0" result="BackgroundImageFix"/>
<feColorMatrix in="SourceAlpha" type="matrix" values="0 0 0 0 0 0 0 0 0 0 0 0 0 0 0 0 0 0 127 0"/>
<feOffset dy="10"/>
<feGaussianBlur stdDeviation="7"/>
<feColorMatrix type="matrix" values="0 0 0 0 0 0 0 0 0 0 0 0 0 0 0 0 0 0 0.11 0"/>
<feBlend mode="normal" in2="BackgroundImageFix" result="effect1_dropShadow"/>
<feBlend mode="normal" in="SourceGraphic" in2="effect1_dropShadow" result="shape"/>
</filter>
<linearGradient id="paint0_linear" x1="37" y1="5.02873" x2="250.465" y2="201.907" gradientUnits="userSpaceOnUse">
<stop stop-color="#9446F8"/>
<stop offset="1" stop-color="#5C46F8"/>
</linearGradient>
</defs>
</svg>
